<svg width="48" height="48" viewBox="0 0 48 48" fill="none" xmlns="http://www.w3.org/2000/svg">
  <!-- Web sayfası çerçevesi -->
  <rect x="6" y="10" width="36" height="28" rx="2" stroke="#6D4DF2" stroke-width="2"/>
  <!-- Tarayıcı üst çubuğu -->
  <rect x="6" y="10" width="36" height="6" fill="#6D4DF2"/>
  <circle cx="10" cy="13" r="1" fill="white"/>
  <circle cx="14" cy="13" r="1" fill="white"/>
  <circle cx="18" cy="13" r="1" fill="white"/>

  <!-- Kişi simgesi (baş ve omuzlar) -->
  <circle cx="24" cy="24" r="4" fill="#6D4DF2"/>
  <path d="M18 32c0-3.3137 2.6863-6 6-6s6 2.6863 6 6v2H18v-2z" fill="#6D4DF2"/>

  <!-- Marka yıldızı -->
  <path d="M36 18l1.176 2.382L40 21l-2.412 1.618L38 25l-2-1.25L34 25l.412-2.382L32 21l2.824-.618L36 18z" fill="#6D4DF2"/>
</svg>
